<svg width="35" height="35" viewBox="0 0 35 35" fill="none" xmlns="http://www.w3.org/2000/svg">
<path d="M93.5454 34.3627H97.6818V21.6355C97.6818 16.6718 101.076 15.2188 102.773 15.1127H106.273V11.2946C105.901 11.2946 104.679 11.1943 102.773 11.2946C99.7499 11.4536 98.3712 14.1052 97.3636 15.59V11.7718H93.5454V34.3627Z" fill="currentColor"/>
<path d="M43.909 11.7734H38.9772L46.7727 22.2734L37.5454 34.3643H42.4772L49.4772 24.8189L56.3181 34.3643H61.409L52.1817 22.2734L60.1362 11.7734H55.2044L49.6363 19.4098L43.909 11.7734Z" fill="currentColor"/>
<path fill-rule="evenodd" clip-rule="evenodd" d="M76.0448 34.9981C82.8981 34.9981 88.4538 29.5849 88.4538 22.9073C88.4538 16.2297 82.8981 10.8164 76.0448 10.8164C69.1915 10.8164 63.6357 16.2297 63.6357 22.9073C63.6357 29.5849 69.1915 34.9981 76.0448 34.9981ZM76.0453 31.4981C80.6142 31.4981 84.318 27.6518 84.318 22.9072C84.318 18.1626 80.6142 14.3163 76.0453 14.3163C71.4764 14.3163 67.7726 18.1626 67.7726 22.9072C67.7726 27.6518 71.4764 31.4981 76.0453 31.4981Z" fill="currentColor"/>
<path fill-rule="evenodd" clip-rule="evenodd" d="M5.09089 34.3635H0L3.97726 26.0908H1.27272V21.9545H5.72725L8.59088 15.909H1.27272V11.7727H10.3409L15.4318 0H19.0908L24.0227 11.7727H32.7726V15.909H25.7726L28.6363 21.9545H32.7726V26.0908H30.3863L33.8863 34.3635H28.9545L25.4545 26.0908H8.59088L5.09089 34.3635ZM10.1818 21.9545L12.7273 15.9091H21.3182L23.8636 21.9545H10.1818ZM17.1822 5.40918L14.3185 11.7728H19.8867L17.1822 5.40918Z" fill="#4827FE"/>
</svg>